<?xml version="1.0" encoding="UTF-8" standalone="no"?>
<svg
   width="512"
   height="512"
   viewBox="0 0 512 512"
   version="1.1"
   id="svg16"
   sodipodi:docname="gd.svg"
   inkscape:version="1.1.2 (b8e25be833, 2022-02-05)"
   xmlns:inkscape="http://www.inkscape.org/namespaces/inkscape"
   xmlns:sodipodi="http://sodipodi.sourceforge.net/DTD/sodipodi-0.dtd"
   xmlns="http://www.w3.org/2000/svg"
   xmlns:svg="http://www.w3.org/2000/svg">
  <defs
     id="defs20" />
  <sodipodi:namedview
     id="namedview18"
     pagecolor="#ffffff"
     bordercolor="#666666"
     borderopacity="1.0"
     inkscape:pageshadow="2"
     inkscape:pageopacity="0.0"
     inkscape:pagecheckerboard="0"
     showgrid="false"
     inkscape:zoom="1.265625"
     inkscape:cx="86.123457"
     inkscape:cy="256"
     inkscape:window-width="1920"
     inkscape:window-height="999"
     inkscape:window-x="0"
     inkscape:window-y="0"
     inkscape:window-maximized="1"
     inkscape:current-layer="g14" />
  <g
     stroke-linecap="round"
     stroke-linejoin="round"
     id="g14">
    <path
       fill="none"
       stroke="#666"
       stroke-width="33.34"
       d="M432.345 250.876c0 87.31-75.98 158.088-169.705 158.088-93.726 0-169.706-70.778-169.706-158.088 0-87.31 75.98-158.09 169.706-158.09 93.725 0 169.705 70.78 169.705 158.09z"
       transform="matrix(1.0156 .01389 -.20152 .9924 42.924 8.75)"
       id="path2" />
    <path
       fill="#99f"
       stroke="#000"
       stroke-width="15.55"
       d="M644.286 145.571c0 26.431-20.787 47.858-46.429 47.858-25.642 0-46.428-21.427-46.428-47.858 0-26.43 20.786-47.857 46.428-47.857 25.642 0 46.429 21.427 46.429 47.857z"
       transform="matrix(.96842 0 0 .91438 -225.59 242.796)"
       id="path4" />
    <path
       fill="#99f"
       stroke="#000"
       stroke-width="15.55"
       d="M644.286 145.571c0 26.431-20.787 47.858-46.429 47.858-25.642 0-46.428-21.427-46.428-47.858 0-26.43 20.786-47.857 46.428-47.857 25.642 0 46.429 21.427 46.429 47.857z"
       transform="matrix(.96842 0 0 .91438 -151.12 72.004)"
       id="path6" />
    <path
       fill="#99f"
       stroke="#000"
       stroke-width="15.55"
       d="M644.286 145.571c0 26.431-20.787 47.858-46.429 47.858-25.642 0-46.428-21.427-46.428-47.858 0-26.43 20.786-47.857 46.428-47.857 25.642 0 46.429 21.427 46.429 47.857z"
       transform="matrix(.96842 0 0 .91438 -421.29 266.574)"
       id="path8" />
    <path
       fill="#99f"
       stroke="#000"
       stroke-width="15.55"
       d="M644.286 145.571c0 26.431-20.787 47.858-46.429 47.858-25.642 0-46.428-21.427-46.428-47.858 0-26.43 20.786-47.857 46.428-47.857 25.642 0 46.429 21.427 46.429 47.857z"
       transform="matrix(.96842 0 0 .91438 -483.632 100.362)"
       id="path10" />
    <path
       fill="#9999ff"
       stroke="#000000"
       stroke-width="15.55"
       d="m 654.6121,482.41126 c 0,26.431 -20.787,47.858 -46.429,47.858 -25.642,0 -46.428,-21.427 -46.428,-47.858 0,-26.43 20.786,-47.857 46.428,-47.857 25.642,0 46.429,21.427 46.429,47.857 z"
       transform="matrix(0.96842,0,0,0.91438,-329.052,-23.649)"
       id="path12"
       sodipodi:nodetypes="sssss"
       style="fill:#ff99ac;fill-opacity:1" />
  </g>
</svg>
